<svg xmlns="http://www.w3.org/2000/svg" viewBox="0 0 32 32"><path d="M31.707 13.778c-.904-4.717-4.12-9.836-9.043-11.14C22.16 1.132 19.85.63 17.64.128 12.113-.574 7.19 1.634 3.573 6.05c-4.32 5.119-4.723 12.847-1.206 18.567 8.44 14.553 32.555 5.822 29.34-10.839zm-3.818 3.011c0 2.51-1.507 4.717-2.713 6.724-.905.803-1.708 1.707-2.512 2.61-1.407.602-2.613 1.505-4.02 1.907C-2.957 30.539.258-1.377 21.057 3.34c.503 1.606 2.01 2.71 3.316 3.814.703 1.405 2.21 2.308 2.612 3.814.804 1.907 1.106 3.713.905 5.821zm-6.209 4.909l-2.732.732-4.484-2.6c-.292-.19-.56-.425-.725-.736-.187-.3-.257-.648-.275-.996V9.444l2-2 2 2v7.502l3.484 2.02.732 2.732z"/></svg>